<?xml version="1.0" encoding="UTF-8"?>
<svg version="1.1" xmlns="http://www.w3.org/2000/svg" width="37" height="36">
<path d="M0 0 C3.24000075 1.08000025 3.6336358 1.49783862 5.48046875 4.16015625 C5.92197266 4.78857422 6.36347656 5.41699219 6.81835938 6.06445312 C7.49608398 7.05348633 7.49608398 7.05348633 8.1875 8.0625 C8.65091797 8.72572266 9.11433594 9.38894531 9.59179688 10.07226562 C10.73472863 11.71007505 11.8682718 13.35442897 13 15 C10.65297818 19.24229387 8.28658679 23.14176651 5.25 26.9375 C4.63640625 27.70964844 4.0228125 28.48179688 3.390625 29.27734375 C2.93171875 29.84582031 2.4728125 30.41429688 2 31 C1.01 30.67 0.02 30.34 -1 30 C0.71029079 24.52706949 3.19772289 22.06970281 7 17 C-2.57 17 -12.14 17 -22 17 C-22 16.01 -22 15.02 -22 14 C-12.76 13.67 -3.52 13.34 6 13 C3.69 9.7 1.38 6.4 -1 3 C-0.67 2.01 -0.34 1.02 0 0 Z " fill="#C4C3C0" transform="translate(22,3)"/>
</svg>
